# xmcd CD database file
#
# Track frame offsets:
#	150
#	19597
#	34760
#	50226
#	66240
#	82078
#	102361
#	123722
#	137750
#	153377
#	166760
#	184704
#	209386
#	226536
#
# Disc length: 3133 seconds
#
# Revision: 0
# Processed by: cddbd v1.5.2PL0 Copyright (c) Steve Scherf et al.
# Submitted via: CDex 1.51
#
DISCID=bc0c3b0e
DTITLE=Professor Bottleneck and the Juke Kings - That's it!
DYEAR=2006
DGENRE=Blues
TTITLE0=Why you why me
TTITLE1=That's It!
TTITLE2=My lover my friend
TTITLE3=Be my woman
TTITLE4=Money (says the devil)
TTITLE5=Joy slide 1
TTITLE6=Come one move on (Live)
TTITLE7=Lolita
TTITLE8=Spirited
TTITLE9=If this is your life
TTITLE10=Born in a box
TTITLE11=Wishing blues
TTITLE12=Mena woman blues
TTITLE13=Joy slide 2
EXTD=YEAR: 2006
EXTT0=
EXTT1=
EXTT2=
EXTT3=
EXTT4=
EXTT5=
EXTT6=
EXTT7=
EXTT8=
EXTT9=
EXTT10=
EXTT11=
EXTT12=
EXTT13=
PLAYORDER=
